<svg id="Layer_1" data-name="Layer 1" xmlns="http://www.w3.org/2000/svg" viewBox="0 0 124.09 121.52"><defs><style>.cls-1{fill:#6DB9F7;}</style></defs><path class="cls-1" d="M17,7.84A7.84,7.84,0,1,1,9.14,0,7.84,7.84,0,0,1,17,7.84Z"/><path class="cls-1" d="M52.68,7.84A7.84,7.84,0,1,1,44.84,0,7.84,7.84,0,0,1,52.68,7.84Z"/><path class="cls-1" d="M88.38,7.84A7.84,7.84,0,1,1,80.55,0,7.84,7.84,0,0,1,88.38,7.84Z"/><path class="cls-1" d="M124.09,7.84A7.84,7.84,0,1,1,116.25,0,7.84,7.84,0,0,1,124.09,7.84Z"/><path class="cls-1" d="M16.54,43.12a7.84,7.84,0,1,1-7.83-7.84A7.83,7.83,0,0,1,16.54,43.12Z"/><path class="cls-1" d="M52.25,43.12a7.84,7.84,0,1,1-7.84-7.84A7.84,7.84,0,0,1,52.25,43.12Z"/><path class="cls-1" d="M88,43.12a7.84,7.84,0,1,1-7.84-7.84A7.84,7.84,0,0,1,88,43.12Z"/><path class="cls-1" d="M123.65,43.12a7.84,7.84,0,1,1-7.84-7.84A7.84,7.84,0,0,1,123.65,43.12Z"/><path class="cls-1" d="M16.11,78.4a7.84,7.84,0,1,1-7.84-7.84A7.84,7.84,0,0,1,16.11,78.4Z"/><path class="cls-1" d="M51.81,78.4A7.84,7.84,0,1,1,44,70.56,7.84,7.84,0,0,1,51.81,78.4Z"/><path class="cls-1" d="M87.51,78.4a7.84,7.84,0,1,1-7.83-7.84A7.84,7.84,0,0,1,87.51,78.4Z"/><path class="cls-1" d="M123.21,78.4a7.84,7.84,0,1,1-7.83-7.84A7.83,7.83,0,0,1,123.21,78.4Z"/><path class="cls-1" d="M15.67,113.68a7.84,7.84,0,1,1-7.83-7.84A7.83,7.83,0,0,1,15.67,113.68Z"/><path class="cls-1" d="M51.38,113.68a7.84,7.84,0,1,1-7.84-7.84A7.84,7.84,0,0,1,51.38,113.68Z"/><path class="cls-1" d="M87.08,113.68a7.84,7.84,0,1,1-7.84-7.84A7.84,7.84,0,0,1,87.08,113.68Z"/><path class="cls-1" d="M122.78,113.68a7.84,7.84,0,1,1-7.84-7.84A7.84,7.84,0,0,1,122.78,113.68Z"/></svg>