<svg id="Layer_1" data-name="Layer 1" xmlns="http://www.w3.org/2000/svg" viewBox="0 0 210.1 205.84"><defs><style>.cls-1{fill:none;stroke:#EB5E55;stroke-miterlimit:10;stroke-width:3.8px;}</style></defs><path class="cls-1" d="M30.13,14.93a13,13,0,1,1-13-13A13,13,0,0,1,30.13,14.93Z"/><path class="cls-1" d="M89.49,14.93a13,13,0,1,1-13-13A13,13,0,0,1,89.49,14.93Z"/><path class="cls-1" d="M148.84,14.93a13,13,0,1,1-13-13A13,13,0,0,1,148.84,14.93Z"/><path class="cls-1" d="M208.2,14.93a13,13,0,1,1-13-13A13,13,0,0,1,208.2,14.93Z"/><path class="cls-1" d="M29.41,73.59a13,13,0,1,1-13-13A13,13,0,0,1,29.41,73.59Z"/><path class="cls-1" d="M88.76,73.59a13,13,0,1,1-13-13A13,13,0,0,1,88.76,73.59Z"/><path class="cls-1" d="M148.12,73.59a13,13,0,1,1-13-13A13,13,0,0,1,148.12,73.59Z"/><path class="cls-1" d="M207.47,73.59a13,13,0,1,1-13-13A13,13,0,0,1,207.47,73.59Z"/><path class="cls-1" d="M28.68,132.25a13,13,0,1,1-13-13A13,13,0,0,1,28.68,132.25Z"/><path class="cls-1" d="M88,132.25a13,13,0,1,1-13-13A13,13,0,0,1,88,132.25Z"/><path class="cls-1" d="M147.39,132.25a13,13,0,1,1-13-13A13,13,0,0,1,147.39,132.25Z"/><path class="cls-1" d="M206.75,132.25a13,13,0,1,1-13-13A13,13,0,0,1,206.75,132.25Z"/><path class="cls-1" d="M28,190.9a13,13,0,1,1-13-13A13,13,0,0,1,28,190.9Z"/><path class="cls-1" d="M87.31,190.9a13,13,0,1,1-13-13A13,13,0,0,1,87.31,190.9Z"/><path class="cls-1" d="M146.67,190.9a13,13,0,1,1-13-13A13,13,0,0,1,146.67,190.9Z"/><path class="cls-1" d="M206,190.9a13,13,0,1,1-13-13A13,13,0,0,1,206,190.9Z"/></svg>