<svg id="Layer_1" data-name="Layer 1" xmlns="http://www.w3.org/2000/svg" viewBox="0 0 120 120"><path fill="#fff" d="M90.08,118.52V107.6l.06-.25V98.59h-.73c-18.81,0-30.81-5.16-31.31-5.37a4.74,4.74,0,0,1,3.79-8.68c.11,0,11.26,4.59,28,4.59h.25l0-.25V73.94a4.73,4.73,0,0,1,4.73-4.73h15.07V69c-.59-11.35-3.68-32.37-17.71-45.78-8.5-8.11-19.91-12.23-33.93-12.23-1.12,0-2.27,0-3.42.08C13.41,12.92,9.94,65,9.94,113.6v4.92H.48V107.35C.56,85.74,1.56,60.89,8.35,40.53c8.29-24.83,23.8-37.94,46.09-39,1.27-.06,2.55-.09,3.79-.09,16.57,0,30.21,5,40.52,14.85,18.75,17.9,20.77,46.25,20.77,57.61a4.73,4.73,0,0,1-4.73,4.73H99.6v35.12a2.85,2.85,0,0,1,0,.41l0,.15v4.17Z"/><path d="M77,56.1a6,6,0,1,1,6-6A6,6,0,0,1,77,56.1Z"/></svg>