<svg id="Layer_1" data-name="Layer 1" xmlns="http://www.w3.org/2000/svg" viewBox="0 0 1440 758"><defs><style>.cls-1{fill:none;stroke:rgba(255,255,255,.05);stroke-miterlimit:10;stroke-width:0.68px;}</style></defs><rect class="cls-1" x="1275.07" y="83.6" width="73.85" height="73.85"/><rect class="cls-1" x="1201.07" y="83.6" width="73.85" height="73.85"/><rect class="cls-1" x="1127.07" y="83.6" width="73.85" height="73.85"/><rect class="cls-1" x="1053.07" y="83.6" width="73.85" height="73.85"/><rect class="cls-1" x="979.07" y="83.6" width="73.85" height="73.85"/><rect class="cls-1" x="905.07" y="83.6" width="73.85" height="73.85"/><rect class="cls-1" x="831.07" y="83.6" width="73.85" height="73.85"/><rect class="cls-1" x="757.07" y="83.6" width="73.85" height="73.85"/><rect class="cls-1" x="683.07" y="83.6" width="73.85" height="73.85"/><rect class="cls-1" x="609.07" y="83.6" width="73.85" height="73.85"/><rect class="cls-1" x="535.07" y="83.6" width="73.85" height="73.85"/><rect class="cls-1" x="461.07" y="83.6" width="73.85" height="73.85"/><rect class="cls-1" x="387.07" y="83.6" width="73.85" height="73.85"/><rect class="cls-1" x="313.07" y="83.6" width="73.85" height="73.85"/><rect class="cls-1" x="239.07" y="83.6" width="73.85" height="73.85"/><rect class="cls-1" x="165.07" y="83.6" width="73.85" height="73.85"/><rect class="cls-1" x="91.07" y="83.6" width="73.85" height="73.85"/><rect class="cls-1" x="1275.07" y="157.45" width="73.85" height="73.85"/><rect class="cls-1" x="1201.07" y="157.45" width="73.85" height="73.85"/><rect class="cls-1" x="1127.07" y="157.45" width="73.85" height="73.85"/><rect class="cls-1" x="1053.07" y="157.45" width="73.85" height="73.85"/><rect class="cls-1" x="979.07" y="157.45" width="73.85" height="73.85"/><rect class="cls-1" x="905.07" y="157.45" width="73.85" height="73.85"/><rect class="cls-1" x="831.07" y="157.45" width="73.85" height="73.85"/><rect class="cls-1" x="757.07" y="157.45" width="73.85" height="73.85"/><rect class="cls-1" x="683.07" y="157.45" width="73.85" height="73.85"/><rect class="cls-1" x="609.07" y="157.45" width="73.85" height="73.85"/><rect class="cls-1" x="535.07" y="157.45" width="73.85" height="73.85"/><rect class="cls-1" x="461.07" y="157.45" width="73.85" height="73.85"/><rect class="cls-1" x="387.07" y="157.45" width="73.85" height="73.85"/><rect class="cls-1" x="313.07" y="157.45" width="73.85" height="73.85"/><rect class="cls-1" x="239.07" y="157.45" width="73.85" height="73.85"/><rect class="cls-1" x="165.07" y="157.45" width="73.85" height="73.85"/><rect class="cls-1" x="91.07" y="157.45" width="73.85" height="73.85"/><rect class="cls-1" x="1275.07" y="231.3" width="73.85" height="73.85"/><rect class="cls-1" x="1201.07" y="231.3" width="73.85" height="73.85"/><rect class="cls-1" x="1127.07" y="231.3" width="73.85" height="73.85"/><rect class="cls-1" x="1053.07" y="231.3" width="73.85" height="73.85"/><rect class="cls-1" x="979.07" y="231.3" width="73.85" height="73.85"/><rect class="cls-1" x="905.07" y="231.3" width="73.85" height="73.85"/><rect class="cls-1" x="831.07" y="231.3" width="73.85" height="73.85"/><rect class="cls-1" x="757.07" y="231.3" width="73.85" height="73.85"/><rect class="cls-1" x="683.07" y="231.3" width="73.85" height="73.85"/><rect class="cls-1" x="609.07" y="231.3" width="73.85" height="73.85"/><rect class="cls-1" x="535.07" y="231.3" width="73.85" height="73.85"/><rect class="cls-1" x="461.07" y="231.3" width="73.85" height="73.85"/><rect class="cls-1" x="387.07" y="231.3" width="73.85" height="73.85"/><rect class="cls-1" x="313.07" y="231.3" width="73.85" height="73.85"/><rect class="cls-1" x="239.07" y="231.3" width="73.85" height="73.85"/><rect class="cls-1" x="165.07" y="231.3" width="73.85" height="73.85"/><rect class="cls-1" x="91.07" y="231.3" width="73.85" height="73.85"/><rect class="cls-1" x="1275.07" y="305.15" width="73.85" height="73.85"/><rect class="cls-1" x="1201.07" y="305.15" width="73.85" height="73.85"/><rect class="cls-1" x="1127.07" y="305.15" width="73.85" height="73.85"/><rect class="cls-1" x="1053.07" y="305.15" width="73.85" height="73.85"/><rect class="cls-1" x="979.07" y="305.15" width="73.85" height="73.85"/><rect class="cls-1" x="905.07" y="305.15" width="73.85" height="73.85"/><rect class="cls-1" x="831.07" y="305.15" width="73.85" height="73.85"/><rect class="cls-1" x="757.07" y="305.15" width="73.85" height="73.85"/><rect class="cls-1" x="683.07" y="305.15" width="73.85" height="73.85"/><rect class="cls-1" x="609.07" y="305.15" width="73.85" height="73.85"/><rect class="cls-1" x="535.07" y="305.15" width="73.85" height="73.85"/><rect class="cls-1" x="461.07" y="305.15" width="73.85" height="73.85"/><rect class="cls-1" x="387.07" y="305.15" width="73.85" height="73.85"/><rect class="cls-1" x="313.07" y="305.15" width="73.85" height="73.85"/><rect class="cls-1" x="239.07" y="305.15" width="73.85" height="73.85"/><rect class="cls-1" x="165.07" y="305.15" width="73.85" height="73.85"/><rect class="cls-1" x="91.07" y="305.15" width="73.85" height="73.85"/><rect class="cls-1" x="1275.07" y="379" width="73.85" height="73.85"/><rect class="cls-1" x="1201.07" y="379" width="73.85" height="73.85"/><rect class="cls-1" x="1127.07" y="379" width="73.85" height="73.85"/><rect class="cls-1" x="1053.07" y="379" width="73.85" height="73.85"/><rect class="cls-1" x="979.07" y="379" width="73.85" height="73.85"/><rect class="cls-1" x="905.07" y="379" width="73.85" height="73.85"/><rect class="cls-1" x="831.07" y="379" width="73.85" height="73.85"/><rect class="cls-1" x="757.07" y="379" width="73.85" height="73.85"/><rect class="cls-1" x="683.07" y="379" width="73.85" height="73.85"/><rect class="cls-1" x="609.07" y="379" width="73.85" height="73.85"/><rect class="cls-1" x="535.07" y="379" width="73.85" height="73.85"/><rect class="cls-1" x="461.07" y="379" width="73.85" height="73.85"/><rect class="cls-1" x="387.07" y="379" width="73.85" height="73.85"/><rect class="cls-1" x="313.07" y="379" width="73.85" height="73.85"/><rect class="cls-1" x="239.07" y="379" width="73.85" height="73.85"/><rect class="cls-1" x="165.07" y="379" width="73.85" height="73.85"/><rect class="cls-1" x="91.07" y="379" width="73.85" height="73.85"/><rect class="cls-1" x="1275.07" y="452.85" width="73.85" height="73.85"/><rect class="cls-1" x="1201.07" y="452.85" width="73.85" height="73.85"/><rect class="cls-1" x="1127.07" y="452.85" width="73.85" height="73.85"/><rect class="cls-1" x="1053.07" y="452.85" width="73.85" height="73.85"/><rect class="cls-1" x="979.07" y="452.85" width="73.85" height="73.85"/><rect class="cls-1" x="905.07" y="452.85" width="73.85" height="73.85"/><rect class="cls-1" x="831.07" y="452.85" width="73.85" height="73.85"/><rect class="cls-1" x="757.07" y="452.85" width="73.85" height="73.85"/><rect class="cls-1" x="683.07" y="452.85" width="73.85" height="73.85"/><rect class="cls-1" x="609.07" y="452.85" width="73.85" height="73.85"/><rect class="cls-1" x="535.07" y="452.85" width="73.85" height="73.85"/><rect class="cls-1" x="461.07" y="452.85" width="73.85" height="73.85"/><rect class="cls-1" x="387.07" y="452.85" width="73.85" height="73.85"/><rect class="cls-1" x="313.07" y="452.85" width="73.85" height="73.85"/><rect class="cls-1" x="239.07" y="452.85" width="73.85" height="73.85"/><rect class="cls-1" x="165.07" y="452.85" width="73.85" height="73.85"/><rect class="cls-1" x="91.07" y="452.85" width="73.85" height="73.85"/><rect class="cls-1" x="1275.07" y="526.7" width="73.85" height="73.85"/><rect class="cls-1" x="1201.07" y="526.7" width="73.85" height="73.85"/><rect class="cls-1" x="1127.07" y="526.7" width="73.85" height="73.85"/><rect class="cls-1" x="1053.07" y="526.7" width="73.85" height="73.85"/><rect class="cls-1" x="979.07" y="526.7" width="73.85" height="73.85"/><rect class="cls-1" x="905.07" y="526.7" width="73.85" height="73.85"/><rect class="cls-1" x="831.07" y="526.7" width="73.85" height="73.85"/><rect class="cls-1" x="757.07" y="526.7" width="73.85" height="73.85"/><rect class="cls-1" x="683.07" y="526.7" width="73.85" height="73.85"/><rect class="cls-1" x="609.07" y="526.7" width="73.85" height="73.85"/><rect class="cls-1" x="535.07" y="526.7" width="73.85" height="73.85"/><rect class="cls-1" x="461.07" y="526.7" width="73.85" height="73.85"/><rect class="cls-1" x="387.07" y="526.7" width="73.85" height="73.85"/><rect class="cls-1" x="313.07" y="526.7" width="73.85" height="73.85"/><rect class="cls-1" x="239.07" y="526.7" width="73.85" height="73.85"/><rect class="cls-1" x="165.07" y="526.7" width="73.85" height="73.85"/><rect class="cls-1" x="91.07" y="526.7" width="73.85" height="73.85"/><rect class="cls-1" x="1275.07" y="600.55" width="73.85" height="73.85"/><rect class="cls-1" x="1201.07" y="600.55" width="73.85" height="73.85"/><rect class="cls-1" x="1127.07" y="600.55" width="73.85" height="73.85"/><rect class="cls-1" x="1053.07" y="600.55" width="73.85" height="73.85"/><rect class="cls-1" x="979.07" y="600.55" width="73.85" height="73.85"/><rect class="cls-1" x="905.07" y="600.55" width="73.85" height="73.85"/><rect class="cls-1" x="831.07" y="600.55" width="73.85" height="73.85"/><rect class="cls-1" x="757.07" y="600.55" width="73.85" height="73.85"/><rect class="cls-1" x="683.07" y="600.55" width="73.85" height="73.85"/><rect class="cls-1" x="609.07" y="600.55" width="73.85" height="73.85"/><rect class="cls-1" x="535.07" y="600.55" width="73.85" height="73.85"/><rect class="cls-1" x="461.07" y="600.55" width="73.85" height="73.85"/><rect class="cls-1" x="387.07" y="600.55" width="73.85" height="73.85"/><rect class="cls-1" x="313.07" y="600.55" width="73.85" height="73.85"/><rect class="cls-1" x="239.07" y="600.55" width="73.85" height="73.85"/><rect class="cls-1" x="165.07" y="600.55" width="73.85" height="73.85"/><rect class="cls-1" x="91.07" y="600.55" width="73.85" height="73.85"/></svg>