<svg id="Layer_1" data-name="Layer 1" xmlns="http://www.w3.org/2000/svg" viewBox="0 0 1158.45 400"><path d="M203.41,178.81a34.08,34.08,0,0,0-13.63-2.47H175.71a7.22,7.22,0,0,1-5.37-2,6.55,6.55,0,0,1-2-4.78,6.75,6.75,0,0,1,2-4.94,7.07,7.07,0,0,1,5.22-2h32.78V147.91H174A22.2,22.2,0,0,0,162.44,151a22.65,22.65,0,0,0-8.13,8,21.08,21.08,0,0,0-3,11q0,7.54,3.19,12.4a18.85,18.85,0,0,0,8.78,7.18A32.74,32.74,0,0,0,176,191.86h14.36a8.29,8.29,0,0,1,4.13,1,6.85,6.85,0,0,1,2.76,2.76,7.75,7.75,0,0,1,.94,3.77,7.67,7.67,0,0,1-1,3.91,7.91,7.91,0,0,1-2.83,2.83,8.44,8.44,0,0,1-4.43,1.09H154.24v14.65h37.57a23.16,23.16,0,0,0,12-3.12,22.88,22.88,0,0,0,8.34-8.41,22.47,22.47,0,0,0,3-11.39q0-7.68-3-12.69A18.56,18.56,0,0,0,203.41,178.81Z"/><path d="M276.81,152.83a40.55,40.55,0,0,0-38.72,0,37,37,0,0,0,0,64.14,40.55,40.55,0,0,0,38.72,0,37.07,37.07,0,0,0,0-64.14ZM276,196.54a20.74,20.74,0,0,1-7.35,8.31,20,20,0,0,1-11.08,3.05,20.21,20.21,0,0,1-11.22-3.05,20.78,20.78,0,0,1-7.34-8.24,27.23,27.23,0,0,1,0-23.35,20.78,20.78,0,0,1,7.34-8.31,20.21,20.21,0,0,1,11.22-3,19.94,19.94,0,0,1,11.08,3A20.91,20.91,0,0,1,276,173.2a27.21,27.21,0,0,1,0,23.34Z"/><path d="M639.72,158.44a31.72,31.72,0,0,0-11.57-7.83,41.31,41.31,0,0,0-15.38-2.7,39.39,39.39,0,0,0-19.25,4.57,32,32,0,0,0-12.95,13.17q-4.65,8.58-4.65,20.22V250.7h16.35V209.84h.28a24.21,24.21,0,0,0,5.75,6.37,26,26,0,0,0,7.89,4.23,29,29,0,0,0,9.22,1.45,34.5,34.5,0,0,0,17.87-4.5,31.93,31.93,0,0,0,12-12.54A38.87,38.87,0,0,0,649.62,186a44.64,44.64,0,0,0-2.56-15.45A35.42,35.42,0,0,0,639.72,158.44Zm-9.21,38.31a19.77,19.77,0,0,1-7.07,8.17,19.07,19.07,0,0,1-10.67,3,18.78,18.78,0,0,1-10.52-3,20.22,20.22,0,0,1-7.14-8.17,26.46,26.46,0,0,1-2.56-11.85,26.73,26.73,0,0,1,2.56-12,19.73,19.73,0,0,1,7.14-8.11,19.13,19.13,0,0,1,10.52-2.9,18.79,18.79,0,0,1,10.6,3,20.53,20.53,0,0,1,7.07,8.11A26.3,26.3,0,0,1,633,184.9,27.13,27.13,0,0,1,630.51,196.75Z"/><path d="M783.45,198.89a9.41,9.41,0,0,1-1.18,4.71,8.25,8.25,0,0,1-3.12,3.19,8.47,8.47,0,0,1-4.29,1.11,9.24,9.24,0,0,1-4.43-1.11,8,8,0,0,1-3.26-3.19,9.31,9.31,0,0,1-1.18-4.71V173.26q0-8.31-3.18-13.92a21.18,21.18,0,0,0-8.8-8.52,27.74,27.74,0,0,0-13-2.91,28.12,28.12,0,0,0-13,2.91,20.61,20.61,0,0,0-8.8,8.52q-3.12,5.61-3.12,13.92v25.63a9,9,0,0,1-1.24,4.71,8.67,8.67,0,0,1-3.26,3.19,8.89,8.89,0,0,1-4.36,1.11,8.63,8.63,0,0,1-4.23-1.11,8.31,8.31,0,0,1-3.19-3.12,9.3,9.3,0,0,1-1.17-4.78V149.58H682.18V196.4q0,8.73,3.39,14.41a20.82,20.82,0,0,0,9.15,8.38,29.4,29.4,0,0,0,12.67,2.7,28.67,28.67,0,0,0,12.47-2.7,21.26,21.26,0,0,0,9.15-8.38q3.45-5.69,3.46-14.41V170.77a9.23,9.23,0,0,1,1.18-4.78,7.92,7.92,0,0,1,3.11-3.05,9.47,9.47,0,0,1,8.59,0,8,8,0,0,1,3.12,3.05,9.33,9.33,0,0,1,1.18,4.78V196.4q0,8.73,3.46,14.41a21.23,21.23,0,0,0,9.14,8.38,30.63,30.63,0,0,0,25.15,0,20.38,20.38,0,0,0,9.07-8.38q3.33-5.69,3.33-14.41V149.58H783.45Z"/><path d="M866,152.83a40.55,40.55,0,0,0-38.72,0,37,37,0,0,0,0,64.14A40.55,40.55,0,0,0,866,217a37.07,37.07,0,0,0,0-64.14Zm-.83,43.71a20.72,20.72,0,0,1-7.34,8.31,20,20,0,0,1-11.09,3.05,20.21,20.21,0,0,1-11.22-3.05,20.78,20.78,0,0,1-7.34-8.24,27.23,27.23,0,0,1,0-23.35,20.78,20.78,0,0,1,7.34-8.31,20.21,20.21,0,0,1,11.22-3,20,20,0,0,1,11.09,3,20.88,20.88,0,0,1,7.34,8.25,27.21,27.21,0,0,1,0,23.34Z"/><path d="M898.87,153.25c-3.56,3.55-5.34,10.13-5.34,16.41v50.57h16.35V170.36c0-2,.62-5.34,1.87-6.58a6.47,6.47,0,0,1,4.78-1.87h14.55v-14H913.62Q904.2,147.91,898.87,153.25Z"/><path d="M985.36,177.45h-7.15l28.9-29.53h-20l-29.54,29.54h-.89V147.91H940.2v29.54h0V193.8h0v26.43h16.48V193.8h28c2,0,5.33.62,6.58,1.87a6.49,6.49,0,0,1,1.87,4.78v19.78h14V197.54q0-9.42-5.34-14.76C998.22,179.23,991.64,177.45,985.36,177.45Z"/><path d="M309.09,204.29a9.43,9.43,0,1,0,9.42,9.42A9.43,9.43,0,0,0,309.09,204.29Z"/><circle cx="663.62" cy="213.71" r="9.42" transform="translate(-31.35 158.18) rotate(-13.28)"/><path d="M480.34,175.86c-.06-.22-.13-.44-.21-.65h0a36.12,36.12,0,0,0-9.31-15.87A36.61,36.61,0,0,0,454.5,150a37.87,37.87,0,0,0-19.94.25l-.07,0A37.87,37.87,0,0,0,417.1,160a36.15,36.15,0,0,0-9.67,34.72c.08.34.15.67.24,1a36.29,36.29,0,0,0,26,26.23,38,38,0,0,0,19.94-.26h.05a37.91,37.91,0,0,0,17.39-9.75,36.53,36.53,0,0,0,7.84-11.49l-15.22-4.08a21.1,21.1,0,0,1-25.18,11.74A20.71,20.71,0,0,1,429.3,202a23.7,23.7,0,0,1-3.43-5L482,182Zm-57.51,7.45a23.64,23.64,0,0,1,.43-3.84,20.59,20.59,0,0,1,4.94-9.92,20.11,20.11,0,0,1,10-5.83l.07,0a19.93,19.93,0,0,1,11.49.07,20.88,20.88,0,0,1,9.23,6.06A23.5,23.5,0,0,1,461.3,173Z"/><path d="M565.15,175.86c-.06-.22-.13-.44-.21-.65h0a36.12,36.12,0,0,0-9.31-15.87A36.61,36.61,0,0,0,539.31,150a37.87,37.87,0,0,0-19.94.25l-.07,0A37.87,37.87,0,0,0,501.91,160a36.15,36.15,0,0,0-9.67,34.72c.08.34.15.67.24,1a36.29,36.29,0,0,0,26,26.23,38,38,0,0,0,19.94-.26h0a37.91,37.91,0,0,0,17.39-9.75,36.53,36.53,0,0,0,7.84-11.49l-15.22-4.08a21.1,21.1,0,0,1-25.18,11.74,20.71,20.71,0,0,1-9.22-6.06,23.7,23.7,0,0,1-3.43-5l56.1-15Zm-57.51,7.45a23.64,23.64,0,0,1,.43-3.84,20.59,20.59,0,0,1,4.94-9.92,20.11,20.11,0,0,1,10-5.83l.07,0a19.93,19.93,0,0,1,11.49.07,20.88,20.88,0,0,1,9.23,6.06,23.5,23.5,0,0,1,2.33,3.17Z"/><path d="M378.88,152.83a37.82,37.82,0,0,0-19.39-4.92H332.22v74h27.27A37.82,37.82,0,0,0,378.88,217a37.07,37.07,0,0,0,0-64.14Zm-.83,43.71a20.72,20.72,0,0,1-7.34,8.31,20,20,0,0,1-11.09,3.05H346.88v-46h12.74a20,20,0,0,1,11.09,3,20.88,20.88,0,0,1,7.34,8.25,27.21,27.21,0,0,1,0,23.34Z"/></svg>