<svg id="Layer_1" data-name="Layer 1" xmlns="http://www.w3.org/2000/svg" viewBox="0 0 855.77 102.79"><path d="M52.07,30.9a33.87,33.87,0,0,0-13.63-2.47H24.37a7.28,7.28,0,0,1-5.37-2,6.56,6.56,0,0,1-2-4.79,6.74,6.74,0,0,1,2-4.93,7.1,7.1,0,0,1,5.22-2H57V0H22.63A22.2,22.2,0,0,0,11.1,3.05,22.65,22.65,0,0,0,3,11.1a21,21,0,0,0-3,11q0,7.54,3.19,12.4A18.85,18.85,0,0,0,12,41.63,32.74,32.74,0,0,0,24.66,44H39a8.29,8.29,0,0,1,4.13,1,6.83,6.83,0,0,1,2.76,2.75,8.07,8.07,0,0,1-.07,7.69A8,8,0,0,1,43,58.24a8.53,8.53,0,0,1-4.43,1.09H2.9V74H40.47a23.13,23.13,0,0,0,12-3.12,22.81,22.81,0,0,0,8.34-8.41,22.47,22.47,0,0,0,3-11.39q0-7.7-3-12.69A18.52,18.52,0,0,0,52.07,30.9Z"/><path d="M125.47,4.92A37.86,37.86,0,0,0,106.07,0,37.93,37.93,0,0,0,86.75,4.92,36.28,36.28,0,0,0,68.39,37,36.28,36.28,0,0,0,86.75,69.06,37.93,37.93,0,0,0,106.07,74a37.86,37.86,0,0,0,19.4-4.92A36.41,36.41,0,0,0,143.76,37,36.41,36.41,0,0,0,125.47,4.92Zm-.83,43.71a20.74,20.74,0,0,1-7.35,8.31,19.94,19.94,0,0,1-11.08,3,20.21,20.21,0,0,1-11.22-3,20.74,20.74,0,0,1-7.34-8.25A25.43,25.43,0,0,1,85,37a25.59,25.59,0,0,1,2.63-11.64A20.65,20.65,0,0,1,95,17a20.21,20.21,0,0,1,11.22-3,20,20,0,0,1,11.08,3,20.88,20.88,0,0,1,7.35,8.24A25.63,25.63,0,0,1,127.27,37,25.72,25.72,0,0,1,124.64,48.63Z"/><path d="M488.38,10.53A31.48,31.48,0,0,0,476.81,2.7,41.29,41.29,0,0,0,461.44,0a39.29,39.29,0,0,0-19.26,4.57,32.07,32.07,0,0,0-12.95,13.16q-4.65,8.6-4.64,20.23v64.83h16.34V61.92h.28A24.09,24.09,0,0,0,447,68.3a25.9,25.9,0,0,0,7.9,4.22A28.85,28.85,0,0,0,464.07,74a34.51,34.51,0,0,0,17.87-4.51,32,32,0,0,0,12-12.53,38.89,38.89,0,0,0,4.37-18.84,44.6,44.6,0,0,0-2.57-15.45A35.42,35.42,0,0,0,488.38,10.53Zm-9.21,38.3A19.74,19.74,0,0,1,472.1,57a19.13,19.13,0,0,1-10.66,3,18.86,18.86,0,0,1-10.53-3,20.19,20.19,0,0,1-7.14-8.18A26.39,26.39,0,0,1,441.21,37a26.7,26.7,0,0,1,2.56-12,19.67,19.67,0,0,1,7.14-8.11A19.15,19.15,0,0,1,461.44,14,18.79,18.79,0,0,1,472,17a20.53,20.53,0,0,1,7.07,8.11A26.24,26.24,0,0,1,481.66,37,27.06,27.06,0,0,1,479.17,48.83Z"/><path d="M632.11,51a9.31,9.31,0,0,1-1.18,4.71,8.23,8.23,0,0,1-3.11,3.19,8.52,8.52,0,0,1-4.3,1.1,9.23,9.23,0,0,1-4.43-1.1,8,8,0,0,1-3.26-3.19A9.41,9.41,0,0,1,614.65,51V25.35q0-8.31-3.18-13.92a21.18,21.18,0,0,0-8.8-8.52A27.74,27.74,0,0,0,589.72,0a28.12,28.12,0,0,0-13,2.91,20.61,20.61,0,0,0-8.8,8.52q-3.12,5.61-3.12,13.92V51a9,9,0,0,1-1.24,4.71,8.6,8.6,0,0,1-3.26,3.19,8.85,8.85,0,0,1-4.36,1.1,8.61,8.61,0,0,1-4.23-1.1,8.31,8.31,0,0,1-3.19-3.12A9.33,9.33,0,0,1,547.33,51V1.66H530.84V48.49q0,8.73,3.4,14.4a20.83,20.83,0,0,0,9.14,8.39A29.45,29.45,0,0,0,556.06,74a28.66,28.66,0,0,0,12.46-2.7,21.34,21.34,0,0,0,9.15-8.39q3.45-5.67,3.46-14.4V22.86a9.23,9.23,0,0,1,1.18-4.78,7.85,7.85,0,0,1,3.11-3A9.39,9.39,0,0,1,594,15a7.88,7.88,0,0,1,3.12,3,9.33,9.33,0,0,1,1.18,4.78V48.49q0,8.73,3.46,14.4a21.38,21.38,0,0,0,9.14,8.39,30.63,30.63,0,0,0,25.15,0,20.46,20.46,0,0,0,9.07-8.39q3.33-5.67,3.33-14.4V1.66H632.11Z"/><path d="M714.67,4.92a40.55,40.55,0,0,0-38.72,0A36.25,36.25,0,0,0,657.6,37,36.25,36.25,0,0,0,676,69.06a40.55,40.55,0,0,0,38.72,0A36.41,36.41,0,0,0,733,37,36.41,36.41,0,0,0,714.67,4.92Zm-.83,43.71a20.65,20.65,0,0,1-7.34,8.31,20,20,0,0,1-11.08,3,20.22,20.22,0,0,1-11.23-3,20.81,20.81,0,0,1-7.34-8.25A25.56,25.56,0,0,1,674.22,37a25.72,25.72,0,0,1,2.63-11.64A20.72,20.72,0,0,1,684.19,17a20.23,20.23,0,0,1,11.23-3,20,20,0,0,1,11.08,3,20.78,20.78,0,0,1,7.34,8.24A25.63,25.63,0,0,1,716.47,37,25.72,25.72,0,0,1,713.84,48.63Z"/><path d="M747.53,5.33c-3.56,3.56-5.34,10.14-5.34,16.42V72.31h16.35V22.44c0-2,.62-5.33,1.87-6.58A6.5,6.5,0,0,1,765.19,14h14.55V0H762.28Q752.86,0,747.53,5.33Z"/><path d="M834,29.54h-7.15L855.77,0h-20L806.24,29.54h-.9V0H788.86V29.54h0V45.88h0V72.31h16.48V45.88h28c2,0,5.33.63,6.58,1.87a6.5,6.5,0,0,1,1.87,4.78V72.31h14V49.62q0-9.42-5.34-14.75C846.88,31.31,840.3,29.54,834,29.54Z"/><path d="M157.75,56.38a9.43,9.43,0,1,0,9.42,9.42A9.43,9.43,0,0,0,157.75,56.38Z"/><circle cx="512.28" cy="65.8" r="9.42" transform="translate(-1.41 119.46) rotate(-13.28)"/><path d="M329,28a6.18,6.18,0,0,0-.21-.65h0a36.12,36.12,0,0,0-9.31-15.87A36.51,36.51,0,0,0,303.16,2a37.76,37.76,0,0,0-19.94.25l-.07,0a37.87,37.87,0,0,0-17.39,9.75,36.15,36.15,0,0,0-9.67,34.72c.08.33.15.67.24,1a36.3,36.3,0,0,0,26,26.22,37.86,37.86,0,0,0,19.94-.25h.05A38,38,0,0,0,319.75,64a36.51,36.51,0,0,0,7.83-11.48l-15.21-4.08a20.46,20.46,0,0,1-3.72,6,21.8,21.8,0,0,1-21.47,5.75A20.85,20.85,0,0,1,278,54.11a23.88,23.88,0,0,1-3.43-5l56.11-15ZM271.49,35.4a23.64,23.64,0,0,1,.43-3.84,20.66,20.66,0,0,1,4.94-9.93,20.18,20.18,0,0,1,10-5.83l.07,0a20,20,0,0,1,11.49.08,20.88,20.88,0,0,1,9.23,6.06A22.89,22.89,0,0,1,310,25.09Z"/><path d="M413.81,28a6.18,6.18,0,0,0-.21-.65h0a36.12,36.12,0,0,0-9.31-15.87A36.51,36.51,0,0,0,388,2,37.76,37.76,0,0,0,368,2.29l-.07,0a37.87,37.87,0,0,0-17.39,9.75,36.15,36.15,0,0,0-9.67,34.72c.08.33.15.67.24,1a36.3,36.3,0,0,0,26,26.22,37.86,37.86,0,0,0,19.94-.25h.05A37.92,37.92,0,0,0,404.55,64a36.38,36.38,0,0,0,7.84-11.48l-15.21-4.08a20.46,20.46,0,0,1-3.72,6A21.8,21.8,0,0,1,372,60.17a20.79,20.79,0,0,1-9.22-6.06,23.88,23.88,0,0,1-3.43-5l56.11-15ZM356.3,35.4a23.64,23.64,0,0,1,.43-3.84,20.66,20.66,0,0,1,4.94-9.93,20.18,20.18,0,0,1,10-5.83l.07,0a20,20,0,0,1,11.49.08,20.88,20.88,0,0,1,9.23,6.06,22.89,22.89,0,0,1,2.33,3.17Z"/><path d="M227.54,4.92A37.82,37.82,0,0,0,208.15,0H180.88V74h27.27a37.82,37.82,0,0,0,19.39-4.92A36.41,36.41,0,0,0,245.83,37,36.41,36.41,0,0,0,227.54,4.92Zm-.83,43.71a20.72,20.72,0,0,1-7.34,8.31,20,20,0,0,1-11.08,3H195.54V14h12.75a20,20,0,0,1,11.08,3,20.85,20.85,0,0,1,7.34,8.24A25.63,25.63,0,0,1,229.34,37,25.72,25.72,0,0,1,226.71,48.63Z"/></svg>