<svg id="Layer_1" data-name="Layer 1" xmlns="http://www.w3.org/2000/svg" viewBox="0 0 120 120"><defs><style>.cls-1{fill:#fff;}</style></defs><path class="cls-1" d="M60.41,78.35a17,17,0,0,1-7.13,14.37,24.39,24.39,0,0,1-7.71,3.69,33.3,33.3,0,0,1-9.34,1.27H0v-75H40.13a14.87,14.87,0,0,1,7.08,1.69,17.73,17.73,0,0,1,5.39,4.39A20.27,20.27,0,0,1,56,34.89a20.63,20.63,0,0,1,1.21,6.92,20.42,20.42,0,0,1-2.74,10.3,16.8,16.8,0,0,1-8,7.13,19.22,19.22,0,0,1,10.19,6.81A19.66,19.66,0,0,1,60.41,78.35ZM14.57,35.16v18.9H34a8.63,8.63,0,0,0,6.28-2.53,9.34,9.34,0,0,0,2.59-7,9.62,9.62,0,0,0-2.38-6.87,7.71,7.71,0,0,0-5.86-2.53ZM45.73,75.61A10.94,10.94,0,0,0,45,71.75a10.7,10.7,0,0,0-1.84-3.22,8.59,8.59,0,0,0-2.75-2.16,7.69,7.69,0,0,0-3.49-.8H14.57V85.32H36.23A9.43,9.43,0,0,0,40,84.58a9,9,0,0,0,3-2.06,9.83,9.83,0,0,0,2-3.11A10,10,0,0,0,45.73,75.61Z"/><path class="cls-1" d="M92,97.68a29.89,29.89,0,0,1-11.67-2.2A26.32,26.32,0,0,1,65.73,80.69a28.21,28.21,0,0,1-2-10.54,29.73,29.73,0,0,1,1.94-10.79,26.27,26.27,0,0,1,14.58-15,29.87,29.87,0,0,1,11.82-2.25,29.1,29.1,0,0,1,11.72,2.25C115.13,49.3,120.46,60.28,120,72.2a10.62,10.62,0,0,1-.26,2H78.27a15.73,15.73,0,0,0,1.53,5.62A13.88,13.88,0,0,0,83,84.07a13.64,13.64,0,0,0,4.4,2.66,14.49,14.49,0,0,0,5.11.92,15.71,15.71,0,0,0,7.73-2,10.55,10.55,0,0,0,5-5.27L117,83.66a23.93,23.93,0,0,1-9.47,10.08A29.3,29.3,0,0,1,92,97.68ZM105.9,65.34a14.28,14.28,0,0,0-4.45-9.67,14,14,0,0,0-19,0,14.29,14.29,0,0,0-3,4.2,14.88,14.88,0,0,0-1.38,5.42Z"/><path class="cls-1" d="M73.94,26.25h35.88v8.91H73.94Z"/></svg>