<svg id="Layer_1" data-name="Layer 1" xmlns="http://www.w3.org/2000/svg" viewBox="0 0 120 120"><defs><style>.cls-1{fill:#fff;}</style></defs><path class="cls-1" d="M60,.1A59.9,59.9,0,1,0,120,60,60,60,0,0,0,60,.1ZM99.46,28.37a50.3,50.3,0,0,1,11.19,30.86A124.56,124.56,0,0,0,87.22,57a95.76,95.76,0,0,0-11.56.67c-.33-.8-.66-1.6-1-2.41-1-2.4-2.11-4.77-3.24-7.11,17.73-7.3,26.28-17.44,28.05-19.74ZM60,9.48A50.48,50.48,0,0,1,93.38,22.05C92,24,84.31,33.55,67.21,40A273.5,273.5,0,0,0,48.58,10.78,50.54,50.54,0,0,1,60,9.48ZM38.23,14.39A323.45,323.45,0,0,1,56.77,43.25,191.51,191.51,0,0,1,11,49.35h-.5a50.8,50.8,0,0,1,27.75-35ZM9.33,60.08c0-.42,0-.83,0-1.25h1.33c6.29,0,28.11-.52,50.61-7.19C62.65,54.31,64,57,65.16,59.73c-.57.16-1.13.32-1.68.51C38.15,68.42,24.23,90.07,22.09,93.61A50.33,50.33,0,0,1,9.33,60.08ZM60,110.68a50.43,50.43,0,0,1-30.9-10.54c1.44-2.84,11.95-21.75,39.7-31.41l.06,0a210.61,210.61,0,0,1,10.71,38A50.39,50.39,0,0,1,60,110.68Zm28.7-8.92A221.5,221.5,0,0,0,79,66.23a66.35,66.35,0,0,1,10.19-.77A75.15,75.15,0,0,1,110,68.37,50.73,50.73,0,0,1,88.7,101.76Z"/></svg>