<svg id="Layer_1" data-name="Layer 1" xmlns="http://www.w3.org/2000/svg" viewBox="0 0 120 120"><defs><style>.cls-1{fill:#fff;}</style></defs><path class="cls-1" d="M91.71,21.68a7,7,0,1,0,7,7A7,7,0,0,0,91.71,21.68Z"/><path class="cls-1" d="M60.49,30.69A29.5,29.5,0,1,0,90,60.19,29.53,29.53,0,0,0,60.49,30.69Zm0,48.39a18.9,18.9,0,1,1,18.9-18.89A18.91,18.91,0,0,1,60.49,79.08Z"/><path class="cls-1" d="M83.91,120.08H36.09a36,36,0,0,1-36-36V36.27a36,36,0,0,1,36-36H83.91a36,36,0,0,1,36,36V84.1A36,36,0,0,1,83.91,120.08ZM36.09,11.56A24.74,24.74,0,0,0,11.37,36.27V84.1a24.74,24.74,0,0,0,24.72,24.71H83.91A24.74,24.74,0,0,0,108.63,84.1V36.27A24.74,24.74,0,0,0,83.91,11.56Z"/></svg>