<svg id="Layer_1" data-name="Layer 1" xmlns="http://www.w3.org/2000/svg" viewBox="0 0 287.56 75.09"><path d="M52,30.85a34,34,0,0,0-13.61-2.46h-14a7.23,7.23,0,0,1-5.35-2,6.5,6.5,0,0,1-2-4.78,6.66,6.66,0,0,1,2-4.92,7,7,0,0,1,5.21-2H56.9V0H22.59a22.12,22.12,0,0,0-11.51,3,22.7,22.7,0,0,0-8.11,8A21,21,0,0,0,0,22q0,7.53,3.19,12.37a18.8,18.8,0,0,0,8.75,7.17,32.67,32.67,0,0,0,12.67,2.32H39a8.35,8.35,0,0,1,4.12,1,6.87,6.87,0,0,1,2.75,2.75,7.78,7.78,0,0,1,.94,3.77,7.63,7.63,0,0,1-1,3.9,8,8,0,0,1-2.82,2.83,8.49,8.49,0,0,1-4.42,1.08H2.9V73.85H40.39a23.08,23.08,0,0,0,12-3.12,22.7,22.7,0,0,0,8.32-8.39A22.4,22.4,0,0,0,63.7,51q0-7.66-3-12.67A18.5,18.5,0,0,0,52,30.85Z"/><path d="M247.87,50.89a9.3,9.3,0,0,1-1.18,4.7,8.2,8.2,0,0,1-3.11,3.18,8.46,8.46,0,0,1-4.28,1.11,9.24,9.24,0,0,1-4.43-1.11,8,8,0,0,1-3.25-3.18,9.4,9.4,0,0,1-1.18-4.7V25.31q0-8.29-3.18-13.9a21.11,21.11,0,0,0-8.78-8.51A27.75,27.75,0,0,0,205.55,0a28.21,28.21,0,0,0-13,2.9,20.65,20.65,0,0,0-8.78,8.51q-3.11,5.6-3.11,13.9V50.89a8.94,8.94,0,0,1-1.24,4.7,8.61,8.61,0,0,1-3.25,3.18,8.86,8.86,0,0,1-4.36,1.11,8.62,8.62,0,0,1-4.22-1.11,8.19,8.19,0,0,1-3.18-3.11,9.27,9.27,0,0,1-1.17-4.77V1.66H146.78V48.4q0,8.72,3.39,14.38a20.7,20.7,0,0,0,9.13,8.37A29.31,29.31,0,0,0,172,73.85a28.62,28.62,0,0,0,12.45-2.7,21.22,21.22,0,0,0,9.12-8.37Q197,57.11,197,48.4V22.82a9.27,9.27,0,0,1,1.17-4.77A8,8,0,0,1,201.27,15a9.43,9.43,0,0,1,8.57,0A7.92,7.92,0,0,1,213,18.05a9.27,9.27,0,0,1,1.18,4.77V48.4q0,8.72,3.45,14.38a21.24,21.24,0,0,0,9.13,8.37,30.52,30.52,0,0,0,25.1,0,20.28,20.28,0,0,0,9.06-8.37q3.31-5.67,3.32-14.38V1.66H247.87Z"/><circle cx="278.16" cy="65.69" r="9.41" transform="translate(-7.65 65.66) rotate(-13.28)"/><path d="M119.4,4.91A37.8,37.8,0,0,0,100,0H72.83V73.84H100a37.8,37.8,0,0,0,19.36-4.91,36.35,36.35,0,0,0,18.26-32,36.35,36.35,0,0,0-18.26-32Zm-.83,43.63a20.66,20.66,0,0,1-7.33,8.3,19.88,19.88,0,0,1-11.06,3H87.46V14h12.72a19.88,19.88,0,0,1,11.06,3,20.73,20.73,0,0,1,7.33,8.23,25.47,25.47,0,0,1,2.63,11.68A25.64,25.64,0,0,1,118.57,48.54Z"/></svg>